<svg width="414" height="896" viewBox="0 0 414 896" fill="none" xmlns="http://www.w3.org/2000/svg">
<g clip-path="url(#clip0)">
<rect width="414" height="896" fill="#FDFFE7"/>
<path fill-rule="evenodd" clip-rule="evenodd" d="M508.03 765.194L459.861 743.568C411.692 721.942 315.354 678.69 219.015 695.991C122.677 713.292 26.3384 791.146 -21.8308 830.073L-70 869V869H-21.8308C26.3384 869 122.677 869 219.015 869C315.354 869 411.692 869 459.861 869H508.03V765.194Z" fill="#AED8DA"/>
<path fill-rule="evenodd" clip-rule="evenodd" d="M0 813.853L26.5872 797.672C52.0183 780.247 105.193 746.642 157.211 749.131C210.385 752.865 262.404 793.938 315.578 821.321C367.596 848.703 419.615 862.394 472.789 864.884C524.807 868.618 577.982 862.394 603.413 858.66L630 854.926V896H603.413C577.982 896 524.807 896 472.789 896C419.615 896 367.596 896 315.578 896C262.404 896 210.385 896 157.211 896C105.193 896 52.0183 896 26.5872 896H0V813.853Z" fill="#60C1C8"/>
<path fill-rule="evenodd" clip-rule="evenodd" d="M-39.5542 126.027L7.82533 148.588C55.2049 171.148 149.964 216.27 244.723 198.221C339.482 180.173 434.241 98.9537 481.621 58.3442L529 17.7347V17.7347H481.621C434.241 17.7347 339.482 17.7347 244.723 17.7347C149.964 17.7347 55.2049 17.7347 7.82533 17.7347H-39.5542V126.027Z" fill="#AED8DA"/>
<path fill-rule="evenodd" clip-rule="evenodd" d="M448.672 85.6974L422.521 102.577C397.506 120.755 345.204 155.813 294.038 153.217C241.735 149.321 190.57 106.473 138.267 77.9067C87.1017 49.3409 35.9361 35.058 -16.3665 32.4611C-67.5321 28.5658 -119.835 35.058 -144.849 38.9534L-171 42.8487V-2.43545e-06H-144.849C-119.835 -2.43545e-06 -67.5321 -2.43545e-06 -16.3665 -2.43545e-06C35.9361 -2.43545e-06 87.1017 -2.43545e-06 138.267 -2.43545e-06C190.57 -2.43545e-06 241.735 -2.43545e-06 294.038 -2.43545e-06C345.204 -2.43545e-06 397.506 -2.43545e-06 422.521 -2.43545e-06H448.672V85.6974Z" fill="#60C1C8"/>
</g>
<defs>
<clipPath id="clip0">
<rect width="414" height="896" fill="white"/>
</clipPath>
</defs>
</svg>
