<svg width="414" height="204" viewBox="0 0 414 204" fill="none" xmlns="http://www.w3.org/2000/svg">
<path fill-rule="evenodd" clip-rule="evenodd" d="M508.03 73.1944L459.861 51.5682C411.692 29.942 315.354 -13.3104 219.015 3.99059C122.677 21.2915 26.3384 99.1458 -21.8308 138.073L-70 177H-21.8308C26.3384 177 122.677 177 219.015 177C315.354 177 411.692 177 459.861 177H508.03V73.1944Z" fill="#AED8DA"/>
<path fill-rule="evenodd" clip-rule="evenodd" d="M0 121.853L26.5872 105.672C52.0183 88.2473 105.193 54.6417 157.211 57.131C210.385 60.8649 262.404 101.938 315.578 129.321C367.596 156.703 419.615 170.394 472.789 172.884C524.807 176.618 577.982 170.394 603.413 166.66L630 162.926V204H603.413C577.982 204 524.807 204 472.789 204C419.615 204 367.596 204 315.578 204C262.404 204 210.385 204 157.211 204C105.193 204 52.0183 204 26.5872 204H0V121.853Z" fill="#60C1C8"/>
</svg>
