<svg width="118" height="156" viewBox="0 0 118 156" fill="none" xmlns="http://www.w3.org/2000/svg">
<g filter="url(#filter0_d)">
<path d="M78 52H28C15.8497 52 6 61.8497 6 74V124C6 136.15 15.8497 146 28 146H78C90.1503 146 100 136.15 100 124V74C100 61.8497 90.1503 52 78 52Z" stroke="#19568A" stroke-width="4" stroke-linecap="round" stroke-linejoin="round"/>
<path d="M103.875 5.21949C91.9543 21.4837 81.8687 36.9662 72.6351 57.1662C68.563 66.0757 64.0345 76.5621 61.0744 86.4628C59.3845 91.7127 56.3382 99.9161 55.2997 107.803C49.6197 99.4728 43.5186 90.0176 37.2762 82.6116C32.8268 77.335 20.0115 88.0932 25.228 94.2808C34.5775 105.366 42.3529 119.174 51.4466 130.754C55.2502 135.592 63.6799 125.085 65.6608 120.677C72.1632 106.155 73.0519 88.4028 77.7909 72.5617C85.0266 48.3347 97.859 28.4331 110.529 11.151C118.923 -1.19087 110.253 -3.46724 103.888 5.21949" fill="#123435"/>
</g>
<defs>
<filter id="filter0_d" x="0" y="0" width="118" height="156" filterUnits="userSpaceOnUse" color-interpolation-filters="sRGB">
<feFlood flood-opacity="0" result="BackgroundImageFix"/>
<feColorMatrix in="SourceAlpha" type="matrix" values="0 0 0 0 0 0 0 0 0 0 0 0 0 0 0 0 0 0 127 0" result="hardAlpha"/>
<feOffset dy="4"/>
<feGaussianBlur stdDeviation="2"/>
<feComposite in2="hardAlpha" operator="out"/>
<feColorMatrix type="matrix" values="0 0 0 0 0 0 0 0 0 0 0 0 0 0 0 0 0 0 0.25 0"/>
<feBlend mode="normal" in2="BackgroundImageFix" result="effect1_dropShadow"/>
<feBlend mode="normal" in="SourceGraphic" in2="effect1_dropShadow" result="shape"/>
</filter>
</defs>
</svg>
