<svg width="414" height="203" viewBox="0 0 414 203" fill="none" xmlns="http://www.w3.org/2000/svg">
<path fill-rule="evenodd" clip-rule="evenodd" d="M-39.5544 126.027L7.82513 148.588C55.2047 171.148 149.964 216.27 244.723 198.221C339.482 180.173 434.241 98.9537 481.62 58.3442L529 17.7347H481.62C434.241 17.7347 339.482 17.7347 244.723 17.7347C149.964 17.7347 55.2047 17.7347 7.82513 17.7347H-39.5544V126.027Z" fill="#AED8DA"/>
<path fill-rule="evenodd" clip-rule="evenodd" d="M448.672 85.6974L422.521 102.577C397.507 120.755 345.204 155.813 294.038 153.217C241.736 149.321 190.57 106.473 138.268 77.9067C87.102 49.3409 35.9364 35.058 -16.3662 32.4611C-67.5318 28.5658 -119.834 35.058 -144.849 38.9534L-171 42.8487V0H-144.849C-119.834 0 -67.5318 0 -16.3662 0C35.9364 0 87.102 0 138.268 0C190.57 0 241.736 0 294.038 0C345.204 0 397.507 0 422.521 0H448.672V85.6974Z" fill="#60C1C8"/>
</svg>
